<?xml version="1.0" encoding="utf-8"?>
<!-- Generator: Adobe Illustrator 22.1.0, SVG Export Plug-In . SVG Version: 6.00 Build 0)  -->
<svg version="1.1" id="Layer_1" xmlns="http://www.w3.org/2000/svg" xmlns:xlink="http://www.w3.org/1999/xlink" x="0px" y="0px"
	 viewBox="0 0 1920 1080" style="enable-background:new 0 0 1920 1080;" xml:space="preserve">
<style type="text/css">
	.st0{fill:#FFFFFF;}
	.st1{fill:#35A6E5;}
	.st2{fill:#008FE0;}
	.st3{opacity:0.5;fill:#008FE0;}
	.st4{fill:#B187F4;}
	.st5{fill:#FFDA6B;}
	.st6{fill:#7745FF;}
	.st7{fill:#FCEED4;}
	.st8{fill:#E8DCC4;}
	.st9{fill:#87D6F7;}
	.st10{fill:#F7B728;}
	.st11{fill:#3B7DF2;}
	.st12{fill:#FFE36E;}
	.st13{fill:#88D7F8;}
	.st14{fill:#1A1114;}
	.st15{fill:#FFB43B;}
	.st16{fill:#EF76A9;}
	.st17{fill:#FFC567;}
	.st18{fill:#48356B;}
	.st19{fill:#6D50A2;}
	.st20{fill:#D44322;}
	.st21{fill:#6B2211;}
	.st22{fill:none;}
	.st23{fill:#EE4097;}
	.st24{fill:#E0E0E0;}
	.st25{fill:none;stroke:#1A1114;stroke-width:0.3458;stroke-miterlimit:10;}
	.st26{fill:#EFA3D0;}
</style>
<g>
	<rect x="11.1" y="-35.3" class="st0" width="2013.2" height="1143.6"/>
	<g>
		<g>
			<path class="st1" d="M554.7,1250c0-0.3,0-0.5,0.2-0.8c1.8-2.7,3.6-5.4,5.2-8.2c0.4-0.6,1.1-0.8,1.7-0.4c0.6,0.3,0.8,1.1,0.4,1.7
				c-1.7,2.8-3.5,5.6-5.3,8.3c-0.4,0.6-1.1,0.7-1.7,0.3C555,1250.7,554.8,1250.4,554.7,1250z"/>
		</g>
		<g>
			<path class="st2" d="M-45.3,1052.7c0-0.1,0-0.1,0-0.2c0.3-7.1,0.7-13.6,1.1-19.7c0-0.7,0.6-1.2,1.3-1.1c0.7,0,1.2,0.6,1.1,1.3
				c-0.4,6.1-0.8,12.5-1.1,19.6c0,0.7-0.6,1.2-1.3,1.2C-44.8,1053.8-45.3,1053.3-45.3,1052.7z M-42.4,1013.4c0-0.1,0-0.2,0-0.2
				c0.8-6.8,1.7-13.3,2.7-19.6c0.1-0.7,0.7-1.1,1.4-1c0.7,0.1,1.1,0.7,1,1.4c-1,6.2-1.9,12.7-2.7,19.4c-0.1,0.7-0.7,1.2-1.4,1.1
				C-41.9,1014.5-42.4,1014-42.4,1013.4z M-35.9,974.6c0-0.1,0-0.3,0-0.4c1.5-6.6,3.3-13,5.3-19.1c0.2-0.6,0.9-1,1.5-0.8
				s1,0.9,0.8,1.5c-1.9,6-3.7,12.3-5.2,18.9c-0.2,0.7-0.8,1.1-1.5,0.9C-35.5,975.6-35.9,975.1-35.9,974.6z M-23.8,937.2
				c0-0.2,0-0.4,0.1-0.6c2.7-6.1,5.6-12.1,8.8-17.7c0.3-0.6,1.1-0.8,1.7-0.5s0.8,1.1,0.5,1.7c-3.2,5.5-6.1,11.4-8.7,17.5
				c-0.3,0.6-1,0.9-1.6,0.6C-23.5,938.1-23.7,937.6-23.8,937.2z M-4.2,903.2c0-0.3,0.1-0.6,0.2-0.8c3.9-5.2,8.3-10.3,13-15
				c0.5-0.5,1.2-0.5,1.7,0s0.5,1.3,0,1.7c-4.6,4.6-8.9,9.6-12.8,14.7c-0.4,0.5-1.2,0.6-1.7,0.2C-4,903.8-4.2,903.5-4.2,903.2z
				 M23.4,875.2c0-0.4,0.1-0.8,0.5-1.1c5.2-4,10.7-7.8,16.3-11.2c0.6-0.3,1.3-0.2,1.7,0.4c0.3,0.6,0.2,1.3-0.4,1.7
				c-5.6,3.4-11,7.1-16.1,11.1c-0.5,0.4-1.3,0.3-1.7-0.2C23.5,875.7,23.4,875.5,23.4,875.2z M57,854.9c0-0.5,0.2-1,0.7-1.2
				c6-2.7,12.2-5.1,18.5-7.1c0.6-0.2,1.3,0.1,1.5,0.8c0.2,0.6-0.1,1.3-0.8,1.5c-6.2,2-12.3,4.3-18.2,7c-0.6,0.3-1.3,0-1.6-0.6
				C57.1,855.2,57,855.1,57,854.9z M94.5,842.9c-0.1-0.6,0.4-1.2,1-1.3c6.2-1.2,12.6-2.1,18.9-2.6l0.7-0.1c0.7-0.1,1.3,0.4,1.3,1.1
				c0,0.6-0.4,1.3-1.1,1.3l-0.7,0.1c-6.2,0.5-12.5,1.4-18.6,2.6C95.3,844.1,94.7,843.7,94.5,842.9C94.5,843,94.5,843,94.5,842.9z
				 M133.6,839.9c0-0.1,0-0.1,0-0.2c0-0.7,0.6-1.2,1.3-1.2c6.6,0.3,13.3,1,19.7,2.1c0.7,0.1,1.1,0.7,1,1.4s-0.7,1.1-1.4,1
				c-6.3-1.1-12.9-1.8-19.4-2.1C134.2,841,133.7,840.5,133.6,839.9z M172.3,846.7c0-0.2,0-0.3,0.1-0.5c0.2-0.6,0.9-1,1.5-0.8
				c2.6,0.8,5.3,1.7,7.8,2.7c3.6,1.3,7.1,2.8,10.6,4.5c0.6,0.3,0.9,1,0.6,1.6c-0.3,0.6-1,0.9-1.6,0.6c-3.5-1.6-7-3.1-10.5-4.4
				c-2.5-1-5.1-1.9-7.7-2.7C172.7,847.6,172.3,847.1,172.3,846.7z M208,863c0-0.2,0-0.5,0.2-0.7c0.3-0.6,1.1-0.8,1.7-0.4
				c5.5,3.3,11,7,16.5,11c0.5,0.4,0.7,1.2,0.3,1.7s-1.2,0.7-1.7,0.3c-5.4-4-10.9-7.6-16.3-10.9C208.3,863.7,208.1,863.4,208,863z
				 M239.8,886.2c0-0.3,0.1-0.6,0.3-0.9c0.4-0.5,1.2-0.6,1.7-0.1c4.8,4.1,9.7,8.6,14.5,13.4c0.5,0.5,0.5,1.2,0,1.7
				c-0.5,0.5-1.2,0.5-1.7,0c-4.9-4.7-9.7-9.2-14.4-13.3C239.9,886.8,239.8,886.5,239.8,886.2z M268,913.6c0-0.4,0.1-0.7,0.4-1
				c0.5-0.5,1.3-0.4,1.7,0.1c4.2,4.5,8.5,9.3,13.2,14.6c0.4,0.5,0.4,1.3-0.1,1.7s-1.3,0.4-1.7-0.1c-4.7-5.3-9-10.1-13.2-14.6
				C268.2,914.1,268.1,913.9,268,913.6z M294.1,943.1c0-0.4,0.1-0.8,0.4-1c0.5-0.4,1.3-0.4,1.7,0.1c3.7,4.4,7.4,8.8,11,13.1l1.7,2
				c0.4,0.5,0.4,1.3-0.2,1.7c-0.5,0.4-1.3,0.4-1.7-0.2l-1.7-2c-3.6-4.4-7.3-8.7-11-13.1C294.2,943.6,294.1,943.4,294.1,943.1z
				 M319.6,973.1c0-0.4,0.1-0.7,0.4-1c0.5-0.5,1.3-0.4,1.7,0.1c4.9,5.4,9.4,9.9,13.9,13.8c0.5,0.4,0.6,1.2,0.1,1.7
				c-0.4,0.5-1.2,0.6-1.7,0.1c-4.5-4-9.1-8.5-14.1-14C319.8,973.6,319.6,973.4,319.6,973.1z M349.4,998.7c0-0.2,0-0.5,0.2-0.7
				c0.3-0.6,1.1-0.8,1.7-0.4c5.7,3.5,11.7,6.2,17.6,8.1c0.6,0.2,1,0.9,0.8,1.5s-0.9,1-1.5,0.8c-6.1-2-12.2-4.7-18.1-8.3
				C349.6,999.4,349.4,999.1,349.4,998.7z M386.6,1010.1L386.6,1010.1c0-0.8,0.6-1.3,1.2-1.3c1.6,0,3.2-0.1,4.8-0.2
				c1.2-0.1,2.5-0.2,3.7-0.4c3.4-0.5,6.8-1.4,10.4-2.6c0.6-0.2,1.3,0.1,1.6,0.8c0.2,0.6-0.1,1.3-0.8,1.6c-3.7,1.3-7.3,2.2-10.9,2.7
				c-1.3,0.2-2.6,0.3-3.8,0.5c-1.6,0.1-3.3,0.2-5,0.2C387.2,1011.2,386.6,1010.7,386.6,1010.1z M423.7,998.5c0-0.5,0.2-0.9,0.6-1.2
				c2.8-1.5,5.5-3.1,8.3-4.7c2.9-1.7,5.9-3.4,8.8-5c0.6-0.3,1.3-0.1,1.7,0.5c0.3,0.6,0.1,1.3-0.5,1.7c-2.9,1.6-5.9,3.3-8.8,5
				c-2.8,1.6-5.5,3.2-8.3,4.8c-0.6,0.3-1.3,0.1-1.7-0.5C423.8,998.9,423.7,998.7,423.7,998.5z M458.7,980.5c0-0.5,0.3-1.1,0.8-1.3
				c5.9-2,12.2-3.3,18.6-3.8l1-0.1c0.7,0,1.3,0.5,1.3,1.1l0,0c0,0.7-0.5,1.3-1.1,1.3l-1,0.1c-6.2,0.5-12.3,1.8-18,3.7
				c-0.6,0.2-1.3-0.1-1.6-0.8C458.7,980.7,458.7,980.6,458.7,980.5z M497.6,977.6c0-0.1,0-0.2,0-0.3c0.1-0.7,0.7-1.1,1.4-1
				c6.4,1,12.9,2.8,19.2,5.2c0.6,0.2,1,0.9,0.7,1.6c-0.2,0.6-0.9,0.9-1.6,0.7c-6.1-2.4-12.4-4.1-18.7-5.1
				C498,978.6,497.6,978.2,497.6,977.6z M534.1,991.5c0-0.3,0-0.5,0.2-0.7c0.4-0.6,1.1-0.8,1.7-0.4c5.7,3.5,11,7.6,15.8,12
				c0.5,0.5,0.5,1.2,0.1,1.7c-0.5,0.5-1.2,0.5-1.7,0.1c-4.7-4.4-9.9-8.3-15.5-11.8C534.4,992.3,534.2,991.9,534.1,991.5z
				 M569.5,1224.5c0-0.2,0-0.4,0.1-0.6c2.9-5.8,5.5-11.8,7.9-17.9c0.2-0.6,1-0.9,1.6-0.7c0.6,0.2,0.9,1,0.7,1.6
				c-2.4,6.1-5.1,12.2-8,18.1c-0.3,0.6-1,0.9-1.6,0.6C569.8,1225.3,569.5,1224.9,569.5,1224.5z M563,1018c0-0.4,0.1-0.8,0.5-1.1
				c0.5-0.4,1.3-0.3,1.7,0.2c3.9,5.2,7.5,10.8,10.7,16.7c0.3,0.6,0.1,1.3-0.5,1.7c-0.6,0.3-1.3,0.1-1.7-0.5
				c-3.2-5.8-6.7-11.3-10.5-16.4C563.1,1018.5,563,1018.2,563,1018z M583.9,1187.9c0-0.1,0-0.3,0-0.4c1.9-6.2,3.5-12.6,4.8-19
				c0.1-0.7,0.8-1.1,1.4-0.9c0.7,0.1,1.1,0.8,0.9,1.4c-1.3,6.4-3,12.9-4.9,19.2c-0.2,0.6-0.9,1-1.5,0.8
				C584.3,1188.9,583.9,1188.4,583.9,1187.9z M581.8,1052.5c0-0.5,0.3-1,0.8-1.2c0.6-0.2,1.3,0.1,1.6,0.7c2.3,6,4.3,12.4,5.9,18.9
				c0.2,0.7-0.2,1.3-0.9,1.5s-1.3-0.2-1.5-0.9c-1.6-6.4-3.6-12.7-5.8-18.6C581.8,1052.7,581.8,1052.6,581.8,1052.5z M591.9,1149.4
				c0-0.1,0-0.2,0-0.2c0.8-6.5,1.3-13,1.5-19.5c0-0.7,0.6-1.2,1.3-1.2s1.2,0.6,1.2,1.3c-0.2,6.6-0.8,13.2-1.6,19.7
				c-0.1,0.7-0.7,1.1-1.4,1.1C592.4,1150.5,592,1150,591.9,1149.4z M591.5,1090.5c-0.1-0.6,0.4-1.2,1-1.3c0.7-0.1,1.3,0.4,1.4,1
				c0.6,4,1,8.1,1.4,12.2l0.1,0.7c0.2,2.3,0.3,4.6,0.5,6.9c0,0.7-0.5,1.2-1.2,1.3c-0.7,0-1.2-0.4-1.3-1.2c-0.1-2.3-0.3-4.5-0.5-6.8
				l-0.1-0.6C592.5,1098.6,592,1094.6,591.5,1090.5C591.5,1090.6,591.5,1090.6,591.5,1090.5z"/>
		</g>
		<g>
			<path class="st1" d="M-46.3,1082.4L-46.3,1082.4c0.1-3.4,0.2-6.6,0.3-9.9c0-0.7,0.6-1.2,1.3-1.2c0.7,0,1.2,0.6,1.2,1.3
				c-0.1,3.3-0.2,6.5-0.3,9.8c0,0.7-0.6,1.2-1.3,1.2C-45.7,1083.5-46.2,1083-46.3,1082.4z"/>
		</g>
	</g>
	<g>
		<g>
			<path class="st1" d="M2291.1,73.1c0.5-0.9,1.5-1.3,2.4-0.9c1,0.4,1.5,1.5,1.1,2.6c-1.9,4.9-3.9,9.8-5.9,14.7
				c-0.3,1-1.6,1.5-2.6,1.1s-1.5-1.6-1.1-2.6c2-4.9,3.9-9.8,5.8-14.7C2291,73.2,2291.1,73.1,2291.1,73.1z"/>
		</g>
		<g>
			<path class="st2" d="M1372-238.4c5.1-9.2,10.3-18.5,15.6-27.5c0.6-0.9,1.8-1.3,2.7-0.7c0.9,0.6,1.3,1.8,0.7,2.7
				c-5.3,9-10.6,18.3-15.6,27.4c-0.5,1-1.7,1.3-2.7,0.8C1371.8-236.2,1371.4-237.4,1372-238.4z M1357.2-210.5
				c0.5-0.9,1.7-1.3,2.6-0.8c1,0.5,1.4,1.7,0.9,2.7c-4.8,9.3-9.5,18.8-14,28.3c-0.4,1-1.6,1.4-2.6,0.9s-1.4-1.7-0.9-2.6
				C1347.6-191.5,1352.4-201.1,1357.2-210.5C1357.1-210.4,1357.2-210.5,1357.2-210.5z M1330-153.4c0.5-0.9,1.6-1.3,2.5-0.9
				c1,0.4,1.4,1.6,1,2.6c-4.2,9.5-8.3,19.3-12.3,29.1c-0.4,1-1.6,1.5-2.6,1.1s-1.5-1.6-1.1-2.6c4-9.8,8.1-19.6,12.3-29.2
				C1330-153.3,1330-153.3,1330-153.4z M1306.2-94.8c0.5-0.9,1.5-1.2,2.4-0.9c1,0.4,1.5,1.5,1.1,2.6l-0.3,0.8
				c-4.1,11.1-7.3,20.3-10,29c-0.3,1-1.4,1.6-2.5,1.3c-1-0.3-1.6-1.4-1.3-2.5c2.7-8.7,5.9-18,10.1-29.2l0.3-0.8
				C1306.1-94.6,1306.2-94.7,1306.2-94.8z M1287.8-34.4c0.4-0.7,1.3-1.2,2.1-1c1.1,0.2,1.8,1.3,1.5,2.3c-2.2,10.9-3.6,21.1-4.1,31
				c-0.1,1.1-1,1.9-2.1,1.9c-1.1-0.1-1.9-1-1.9-2.1c0.5-10.1,1.9-20.5,4.2-31.6C1287.7-34,1287.7-34.2,1287.8-34.4z M1285.2,28.5
				c0.3-0.5,0.8-0.9,1.4-1c1.1-0.2,2.1,0.6,2.3,1.6c1.7,10.5,4.6,20.5,8.6,29.9c0.4,1-0.1,2.2-1,2.6c-1,0.4-2.2,0-2.6-1
				c-4.1-9.6-7.1-20-8.8-30.8C1284.9,29.3,1285,28.8,1285.2,28.5z M1310.2,85.8c0.1-0.2,0.3-0.4,0.5-0.6c0.8-0.7,2.1-0.6,2.8,0.3
				c6.7,8,14.4,14.6,23,19.6l0.5,0.3c0.9,0.5,1.4,1.8,0.7,2.7c-0.5,0.9-1.8,1.3-2.7,0.7l-0.5-0.3c-9-5.2-17-12.1-24-20.5
				C1309.9,87.3,1309.8,86.4,1310.2,85.8z M1363.9,116.5c0.4-0.7,1.2-1.1,2.1-1c9.7,1.7,20.1,2,31,1c1.1-0.1,2.1,0.7,2.2,1.8
				c0.1,1.1-0.7,2.1-1.8,2.2c-11.2,1-22,0.7-32-1.1c-1.1-0.2-1.8-1.2-1.6-2.3C1363.7,116.9,1363.8,116.7,1363.9,116.5z
				 M1426.3,111.3c0.2-0.4,0.6-0.8,1.2-0.9c3.1-0.9,6.1-2,9.1-3.1c6.5-2.4,13-5.1,19.9-8.5c1-0.5,2.2-0.1,2.6,0.9
				c0.5,1,0.1,2.2-0.9,2.6c-7.1,3.4-13.7,6.2-20.3,8.6c-3.1,1.1-6.2,2.2-9.3,3.2c-1,0.3-2.2-0.3-2.5-1.3
				C1426,112.3,1426.1,111.8,1426.3,111.3z M1483.6,84.9c0.2-0.3,0.4-0.6,0.7-0.8c5.9-3.4,11.7-6.8,17.6-10.3
				c3.2-1.9,6.5-3.8,9.7-5.7c0.9-0.6,2.2-0.2,2.7,0.7c0.6,0.9,0.2,2.2-0.7,2.7c-3.2,1.9-6.5,3.8-9.7,5.7
				c-5.9,3.5-11.7,6.9-17.6,10.3c-0.9,0.5-2.2,0.2-2.7-0.7C1483.3,86.2,1483.3,85.5,1483.6,84.9z M1538.6,53.7
				c0.2-0.4,0.5-0.6,0.9-0.8c11.4-5.5,21.5-8.7,30.6-9.8c1.1-0.1,2.1,0.6,2.2,1.7c0.1,1.1-0.6,2.1-1.7,2.2c-8.7,1-18.3,4.1-29.4,9.4
				c-1,0.5-2.2,0.1-2.6-0.9C1538.2,54.9,1538.3,54.2,1538.6,53.7z M1599,50C1599,50,1599,49.9,1599,50c0.6-1,1.8-1.3,2.7-0.8
				c8.5,5,16,12.8,22.3,23.3c0.6,0.9,0.3,2.2-0.7,2.7c-0.9,0.6-2.2,0.3-2.7-0.7c-5.9-9.9-13-17.3-20.9-21.9
				C1598.8,52.1,1598.5,50.9,1599,50z M1633,101.6c0.2-0.4,0.6-0.8,1.2-0.9c1-0.3,2.2,0.3,2.5,1.3l0.5,1.8c2.6,9,4.9,18.6,7,29.1
				c0.2,1.1-0.5,2.1-1.6,2.3s-2.1-0.5-2.3-1.6c-2.1-10.4-4.3-19.9-6.9-28.8l-0.5-1.7C1632.7,102.6,1632.8,102,1633,101.6z
				 M1645.6,163.5c0.3-0.5,0.8-0.9,1.5-1c1.1-0.2,2.1,0.6,2.2,1.7c1.2,8.7,2.3,17.4,3.5,26.1l0.7,5.3c0.1,1.1-0.6,2.1-1.7,2.2
				c-1.1,0.1-2.1-0.6-2.2-1.7l-0.7-5.3c-1.1-8.7-2.2-17.4-3.5-26C1645.4,164.3,1645.4,163.9,1645.6,163.5z M1654.1,226.2
				c0.3-0.5,0.8-0.9,1.4-1c1.1-0.2,2.1,0.6,2.3,1.7c0.5,3.3,1,6.5,1.6,9.7c1.3,7.3,2.7,14.5,4.2,21.2c0.2,1.1-0.4,2.1-1.5,2.4
				c-1.1,0.2-2.1-0.4-2.4-1.5c-1.5-6.8-3-14-4.3-21.4c-0.6-3.3-1.1-6.5-1.6-9.8C1653.8,227,1653.9,226.5,1654.1,226.2z
				 M1668.5,287.7c0.2-0.4,0.6-0.8,1.1-0.9c1-0.4,2.2,0.2,2.5,1.2c3.5,10.4,7.6,20.1,12.1,28.9c0.5,1,0.1,2.2-0.9,2.7
				s-2.2,0.1-2.7-0.9c-4.6-9-8.7-18.9-12.3-29.4C1668.2,288.7,1668.2,288.1,1668.5,287.7z M1697.6,343.5c0.1-0.2,0.3-0.4,0.5-0.6
				c0.9-0.7,2.1-0.5,2.8,0.3c3.7,4.7,7.6,9.2,11.7,13.3c3.1,3.1,6.5,6.1,10,9c0.8,0.7,1,1.9,0.3,2.8c-0.7,0.8-1.9,1-2.8,0.3
				c-3.6-3-7.1-6.1-10.2-9.3c-4.2-4.2-8.3-8.8-12-13.7C1697.2,345,1697.2,344.1,1697.6,343.5z M1745.7,383.8L1745.7,383.8
				c0.5-1,1.7-1.3,2.7-0.8l1.7,0.9c5.5,3,11.4,5.9,17.6,8.7c3,1.3,6,2.6,9.1,3.8c1,0.4,1.5,1.6,1.1,2.6s-1.6,1.5-2.6,1.1
				c-3.1-1.2-6.2-2.5-9.2-3.9c-6.3-2.8-12.3-5.8-17.9-8.8l-1.7-0.9C1745.5,386,1745.2,384.8,1745.7,383.8z M1804.2,407.4
				c0.4-0.8,1.4-1.2,2.3-1c9.9,2.7,20.3,4.9,30.7,6.5c1.1,0.2,1.8,1.2,1.7,2.3c-0.2,1.1-1.2,1.8-2.3,1.6c-10.6-1.6-21-3.9-31.1-6.6
				c-1.1-0.3-1.7-1.4-1.4-2.4C1804,407.7,1804.1,407.5,1804.2,407.4z M1866.5,417.2c0.4-0.6,1.1-1.1,1.8-1c10.3,0.5,20.9,0.5,31.4,0
				c1.1-0.1,2,0.8,2.1,1.9s-0.8,2-1.9,2.1c-10.6,0.5-21.3,0.5-31.8,0c-1.1-0.1-1.9-1-1.9-2.1
				C1866.3,417.7,1866.4,417.4,1866.5,417.2z M1929.6,414.1c0.3-0.5,0.8-0.9,1.5-1c10.3-1.5,20.7-3.5,30.9-5.9
				c1.1-0.3,2.1,0.4,2.4,1.5s-0.4,2.1-1.5,2.4c-10.3,2.4-20.9,4.4-31.2,5.9c-1.1,0.2-2.1-0.6-2.2-1.7
				C1929.3,414.9,1929.4,414.5,1929.6,414.1z M1991.1,399.6c0.2-0.4,0.6-0.8,1.1-0.9c9.9-3.2,19.8-7,29.4-11c1-0.4,2.2,0,2.6,1
				s0,2.2-1,2.6c-9.8,4.1-19.8,7.9-29.8,11.2c-1,0.3-2.2-0.2-2.5-1.3C1990.7,400.6,1990.8,400.1,1991.1,399.6z M2049.2,375
				c0.2-0.3,0.5-0.6,0.8-0.8c9.3-4.8,18.4-10.1,27.2-15.7c0.9-0.6,2.1-0.3,2.7,0.6s0.3,2.2-0.6,2.7c-8.9,5.6-18.1,11-27.5,15.9
				c-1,0.5-2.2,0.1-2.7-0.8C2048.9,376.2,2048.9,375.5,2049.2,375z M2102.6,341.2c0.1-0.2,0.3-0.5,0.5-0.6
				c8.3-6.2,16.5-12.9,24.4-19.8c0.8-0.7,2.1-0.6,2.8,0.2c0.7,0.8,0.6,2.1-0.2,2.8c-8,7-16.3,13.7-24.7,20c-0.9,0.7-2.1,0.5-2.8-0.4
				C2102.2,342.7,2102.2,341.8,2102.6,341.2z M2150.2,299.7c0.1-0.2,0.2-0.3,0.3-0.4c7.3-7.3,14.6-15,21.6-22.9
				c0.7-0.8,2-0.9,2.8-0.2c0.8,0.7,0.9,2,0.2,2.8c-7.1,8-14.4,15.8-21.7,23.1c-0.8,0.8-2,0.8-2.8,0
				C2149.9,301.4,2149.8,300.4,2150.2,299.7z M2192.1,252.3c0.1-0.1,0.1-0.2,0.2-0.3c6.4-8.1,12.6-16.7,18.7-25.3
				c0.6-0.9,1.9-1.1,2.8-0.5c0.9,0.6,1.1,1.9,0.5,2.8c-6.1,8.8-12.4,17.3-18.8,25.5c-0.7,0.9-1.9,1-2.8,0.3
				C2191.8,254.2,2191.6,253.2,2192.1,252.3z M2272.8,116.8c0.5-0.9,1.6-1.3,2.6-0.8s1.4,1.6,1,2.6c-4.4,9.7-9,19.3-13.7,28.6
				c-0.4,1-1.7,1.4-2.7,0.9s-1.4-1.7-0.9-2.7C2263.7,136.2,2268.3,126.6,2272.8,116.8C2272.7,116.9,2272.7,116.9,2272.8,116.8z
				 M2228.2,200.5C2228.2,200.5,2228.3,200.4,2228.2,200.5c5.5-8.8,10.9-18,16.1-27.2c0.5-1,1.7-1.3,2.7-0.8
				c0.9,0.5,1.3,1.7,0.8,2.7l0,0c-5.2,9.3-10.6,18.5-16.1,27.3c-0.6,0.9-1.8,1.2-2.7,0.6C2228,202.6,2227.7,201.4,2228.2,200.5z"/>
		</g>
		<g>
			<path class="st1" d="M1404.2-293.2C1404.2-293.3,1404.3-293.3,1404.2-293.2c2.9-4.6,5.7-9,8.6-13.5c0.6-0.9,1.8-1.2,2.7-0.6
				c0.9,0.6,1.1,1.9,0.6,2.7c-2.9,4.4-5.7,8.9-8.5,13.3c-0.6,0.9-1.8,1.2-2.7,0.6C1404-291.2,1403.7-292.3,1404.2-293.2z"/>
		</g>
	</g>
</g>
<path class="st3" d="M2091,1174.6c-300.4-1.1-600.7-2.1-901.1-3.2c-6.6,1.8-63,16.2-112.3-21.2c-43.1-32.7-49-81-49.9-89.3
	c9.8-20.1,30-54.6,68.5-83.2c65.5-48.8,137.2-45.7,157.9-44c43.1,5.9,154.3,15.1,274.9-43.8c102.3-50,159.9-124,184.6-160.3
	c20.8-64.7,78.5-108.3,140.9-108.2c73.8,0,116.9,61.2,120.7,66.7c15.8,26.9,40.5,62.4,77.4,97.6c38.2,36.4,76.2,59.7,104.5,74.3
	C2135.1,964.8,2113,1069.7,2091,1174.6z"/>
<g>
	<g>
		<path class="st4" d="M1843.5,1039.1l-107.2-66.2c-2.4-1.5-3.9-4.1-3.9-6.9V800.5l111,68.6L1843.5,1039.1L1843.5,1039.1z"/>
		<path class="st5" d="M1792.1,952.4l-35.9-22.2c-1.3-0.8-2.1-2.2-2.1-3.7v-63.2c0-10.9,11.9-17.5,21.1-11.8l37.9,23.4v65.7
			C1813.2,951.5,1801.3,958.1,1792.1,952.4z"/>
		<polygon class="st6" points="1849.9,1034.8 1843.5,1039.1 1843.5,869.1 1849.8,864.7 		"/>
		<polygon class="st6" points="1877.4,1015.7 1871.1,1020 1871.1,850 1877.4,845.6 		"/>
		<path class="st6" d="M1843.5,869.1l-107.9-63.4c-4.1-2.4-4.3-8.2-0.3-10.9l21.6-14.6c2-1.4,4.7-1.5,6.8-0.2l113.7,65.7
			L1843.5,869.1z"/>
		<polygon class="st7" points="1849.9,864.7 1737.8,799.6 1758.6,785.5 1871.1,850 		"/>
		<polygon class="st8" points="1871.1,1020 1849.9,1034.8 1849.9,864.7 1871.1,850 		"/>
	</g>
	<g>
		<path class="st9" d="M1777.7,1037.8l-87.8-54.2c-2-1.2-3.2-3.4-3.2-5.7V842.3l90.9,56.2L1777.7,1037.8L1777.7,1037.8z"/>
		<path class="st10" d="M1735.6,966.8l-29.4-18.2c-1-0.6-1.7-1.8-1.7-3v-51.8c0-8.9,9.8-14.3,17.3-9.7l31.1,19.2v53.8
			C1752.9,966,1743.2,971.5,1735.6,966.8z"/>
		<polygon class="st11" points="1782.9,1034.2 1777.7,1037.8 1777.7,898.5 1782.9,894.9 		"/>
		<polygon class="st11" points="1805.5,1018.6 1800.3,1022.2 1800.3,882.8 1805.5,879.2 		"/>
		<path class="st11" d="M1777.7,898.5l-88.4-52c-3.3-2-3.5-6.7-0.3-8.9l17.7-12c1.7-1.1,3.8-1.2,5.6-0.2l93.2,53.8L1777.7,898.5z"/>
		<polygon class="st7" points="1782.9,894.9 1691.1,841.6 1708.2,830 1800.3,882.8 		"/>
		<polygon class="st8" points="1800.3,1022.2 1782.9,1034.2 1782.9,894.9 1800.3,882.8 		"/>
	</g>
	<g>
		<path class="st0" d="M1724.9,1040.4l-67-41.4c-1.5-0.9-2.4-2.6-2.4-4.3V891.1L1725,934L1724.9,1040.4L1724.9,1040.4z"/>
		<path class="st12" d="M1692.7,986.2l-22.5-13.9c-0.8-0.5-1.3-1.4-1.3-2.3v-39.6c0-6.8,7.4-10.9,13.2-7.4l23.7,14.7v41.1
			C1706,985.6,1698.5,989.7,1692.7,986.2z"/>
		<polygon class="st13" points="1728.9,1037.7 1724.9,1040.4 1724.9,934 1728.9,931.3 		"/>
		<polygon class="st13" points="1746.1,1025.7 1742.1,1028.5 1742.1,922.1 1746.1,919.3 		"/>
		<path class="st13" d="M1724.9,934l-67.5-39.7c-2.6-1.5-2.7-5.1-0.2-6.8l13.5-9.1c1.3-0.9,2.9-0.9,4.3-0.2l71.1,41.1L1724.9,934z"
			/>
		<polygon class="st7" points="1728.9,931.3 1658.8,890.6 1671.8,881.7 1742.1,922.1 		"/>
		<polygon class="st8" points="1742.1,1028.5 1728.9,1037.7 1728.9,931.3 1742.1,922.1 		"/>
	</g>
</g>
<g>
	<circle class="st14" cx="1764.9" cy="726.8" r="13.5"/>
	<path class="st15" d="M1774.4,732.2c0,1.3-1.1,2.3-2.4,2.3s-2.4-1-2.4-2.3s1.1-2.3,2.4-2.3S1774.4,730.9,1774.4,732.2z"/>
	<path class="st16" d="M1779.7,753.6c-1-0.5-2.1-0.8-3.3-0.8h-1.6h-14.7h-1.6c-1.2,0-2.3,0.3-3.3,0.8c-6.9,2.5-7.3,9.4-6.8,17.4
		l6,18.4c0.2,0.5,0.7,0.8,1.2,0.8h0.8h22.3h0.8c0.5,0,1-0.3,1.2-0.8l4.1-17.9C1787.6,764.3,1786.7,756.1,1779.7,753.6z"/>
	<path class="st17" d="M1765.1,740.4L1765.1,740.4c-4,0-7.2-3.1-7.2-6.9v-1.4c0-3.8,3.2-6.9,7.2-6.9l0,0c4,0,7.2,3.1,7.2,6.9v1.4
		C1772.2,737.3,1769,740.4,1765.1,740.4z"/>
	<path class="st14" d="M1761.6,730.6c0,0.3-0.3,0.5-0.6,0.5s-0.6-0.2-0.6-0.5s0.3-0.5,0.6-0.5S1761.6,730.3,1761.6,730.6z"/>
	<path class="st14" d="M1767.5,730.6c0,0.3-0.3,0.5-0.6,0.5c-0.3,0-0.6-0.2-0.6-0.5s0.3-0.5,0.6-0.5S1767.5,730.3,1767.5,730.6z"/>
	<path class="st17" d="M1768.1,739.3l4.5,14.7l-1.8,4.5c-0.7,1.8-3.1,2-4.2,0.4l-3.3-4.9l0.4-13.8L1768.1,739.3z"/>
	<path class="st17" d="M1768.1,739.3c0,0-1,1.1-4.5,0.8l5.5,2.4L1768.1,739.3z"/>
	<polygon class="st17" points="1763.7,729.6 1764.5,733.5 1763.3,733.1 	"/>
	<path class="st18" d="M1780.3,790.2c0,0,9.9,3.2,9.8,17.9h-45.3c0,0-1.6-8.8,10.4-17.9H1780.3z"/>
	<g>
		<g>
			<g>
				<path class="st19" d="M1794.2,807.2l-35.4,56.5l-4.5-2.6l22.8-61.7c2-5.4,8.7-7.7,13.8-4.8l0,0
					C1795.4,797.2,1796.9,802.9,1794.2,807.2z"/>
				<polyline class="st19" points="1794.2,807.2 1758.8,863.7 1754.3,861.1 1777.2,799.4 				"/>
			</g>
			<g>
				<polygon class="st20" points="1758.8,863.3 1759.9,871.1 1748.9,865.2 1754.2,860.8 				"/>
				<polygon class="st21" points="1758.9,873 1747.9,867 1748.9,865.2 1759.9,871.1 				"/>
				<polyline class="st20" points="1748.9,865.2 1754.2,860.8 1758.8,863.3 1759.9,871.1 1748.9,865.2 				"/>
				<polyline class="st19" points="1748.9,865.2 1759.9,871.1 1758.9,873 1747.9,867 				"/>
				<path class="st19" d="M1790.9,794.6c4.5,2.6,6,8.2,3.2,12.6l-35.4,56.5"/>
				<line class="st22" x1="1794.2" y1="807.2" x2="1758.8" y2="863.7"/>
				<polyline class="st9" points="1748.9,865.2 1754.2,860.8 1758.8,863.3 1759.9,871.1 1748.9,865.2 				"/>
				<line class="st22" x1="1758.9" y1="873" x2="1747.9" y2="867"/>
			</g>
		</g>
		<g>
			<path class="st19" d="M1742.9,808.8l35.4,56.5l4.5-2.6L1760,801c-2-5.4-8.7-7.7-13.8-4.8l0,0
				C1741.6,798.8,1740.2,804.5,1742.9,808.8z"/>
			<polygon class="st20" points="1778.2,864.9 1777.1,872.7 1788.1,866.8 1782.9,862.4 			"/>
			<polygon class="st21" points="1778.2,874.6 1789.2,868.6 1788.1,866.8 1777.1,872.7 			"/>
			<polyline class="st19" points="1742.9,808.8 1778.3,865.3 1782.7,862.7 1759.9,801 			"/>
			<polyline class="st20" points="1788.1,866.8 1782.9,862.4 1778.2,864.9 1777.1,872.7 1788.1,866.8 			"/>
			<polyline class="st19" points="1788.1,866.8 1777.1,872.7 1778.2,874.6 1789.2,868.6 			"/>
			<path class="st19" d="M1746.1,796.2c-4.5,2.6-6,8.2-3.2,12.6l35.4,56.5"/>
			<line class="st22" x1="1742.9" y1="808.8" x2="1778.3" y2="865.3"/>
			<polyline class="st9" points="1788.1,866.8 1782.9,862.4 1778.2,864.9 1777.1,872.7 1788.1,866.8 			"/>
			<line class="st22" x1="1778.2" y1="874.6" x2="1789.2" y2="868.6"/>
		</g>
	</g>
	<path class="st23" d="M1755.8,752.3L1755.8,752.3c2.9,0.5,4.8,3.2,4.3,5.9l-3.2,17.2c-0.5,2.8-3.3,4.6-6.2,4.1l0,0
		c-2.9-0.5-4.8-3.2-4.3-5.9l3.2-17.2C1750.2,753.7,1752.9,751.8,1755.8,752.3z"/>
	<path class="st23" d="M1779.5,752L1779.5,752c2.9-0.4,5.6,1.6,6,4.4l2.5,17.3c0.4,2.8-1.6,5.4-4.5,5.8l0,0c-2.9,0.4-5.6-1.6-6-4.4
		l-2.5-17.3C1774.6,755,1776.6,752.4,1779.5,752z"/>
	<g>
		<path class="st24" d="M1793.9,798.7h-49.1c-2,0-3.7-1.6-3.7-3.7v-25.1c0-2,1.6-3.7,3.7-3.7h49.1c2,0,3.7,1.6,3.7,3.7V795
			C1797.5,797,1795.9,798.7,1793.9,798.7z"/>
		<path class="st23" d="M1769.8,779.8h-1c-0.5,0-0.9,0.3-1.2,0.7l-0.5,0.8c-0.3,0.4-0.3,1,0,1.4l0.5,0.8c0.3,0.4,0.7,0.7,1.2,0.7h1
			c0.5,0,0.9-0.3,1.2-0.7l0.5-0.8c0.3-0.4,0.3-1,0-1.4l-0.5-0.8C1770.8,780,1770.3,779.8,1769.8,779.8z"/>
	</g>
	<path class="st14" d="M1761.6,726c0,0,4.8,6.3,13.8,3.7C1775.3,729.6,1770.5,718.3,1761.6,726z"/>
	<path class="st14" d="M1760.8,735c0,2,1.7,3.7,3.7,3.7s3.7-1.6,3.7-3.7H1760.8z"/>
	<path class="st0" d="M1761.1,735c0,0,0.5,1.8,3.5,1.6c3-0.1,3.4-1.6,3.4-1.6H1761.1z"/>
	<path class="st25" d="M1763.2,730.6c0,1.1-0.9,2-2,2s-2-0.9-2-2s0.9-2,2-2C1762.4,728.6,1763.2,729.5,1763.2,730.6z"/>
	<path class="st25" d="M1768.9,730.6c0,1.1-0.9,2-2,2s-2-0.9-2-2s0.9-2,2-2S1768.9,729.5,1768.9,730.6z"/>
</g>
<g>
	<g>
		<path class="st1" d="M767.5,1224.6c0-0.1,0-0.3,0.1-0.4c1-1.4,2-2.7,2.9-4.1c0.2-0.3,0.6-0.4,0.9-0.2c0.3,0.2,0.4,0.6,0.2,0.9
			c-0.9,1.4-1.9,2.8-3,4.2c-0.2,0.3-0.6,0.3-0.9,0.1C767.6,1225,767.5,1224.8,767.5,1224.6z"/>
	</g>
	<g>
		<path class="st2" d="M460.5,1107.8C460.5,1107.7,460.5,1107.7,460.5,1107.8c0.3-3.8,0.7-7.1,1.1-10.3c0-0.3,0.4-0.6,0.7-0.6
			c0.3,0,0.6,0.4,0.6,0.7c-0.4,3.2-0.7,6.5-1.1,10.2c0,0.3-0.3,0.6-0.7,0.6C460.7,1108.3,460.5,1108.1,460.5,1107.8z M462.9,1087.4
			L462.9,1087.4c0.6-3.6,1.2-7,1.9-10.2c0.1-0.3,0.4-0.6,0.8-0.5c0.3,0.1,0.6,0.4,0.5,0.8c-0.7,3.2-1.3,6.6-1.8,10
			c-0.1,0.3-0.4,0.6-0.7,0.5C463.1,1088,462.9,1087.7,462.9,1087.4z M467.2,1067.4c0-0.1,0-0.1,0-0.2c1-3.4,2-6.7,3.2-9.8
			c0.1-0.3,0.5-0.5,0.8-0.4s0.5,0.5,0.4,0.8c-1.1,3.1-2.2,6.3-3.2,9.7c-0.1,0.3-0.4,0.5-0.8,0.4
			C467.4,1067.9,467.2,1067.7,467.2,1067.4z M474.4,1048.3c0-0.1,0-0.2,0.1-0.3c1.5-3.1,3.2-6.2,5-9c0.2-0.3,0.6-0.4,0.9-0.2
			c0.3,0.2,0.4,0.6,0.2,0.9c-1.8,2.8-3.4,5.8-5,8.9c-0.2,0.3-0.5,0.4-0.9,0.3C474.6,1048.7,474.4,1048.5,474.4,1048.3z
			 M485.4,1031.1c0-0.2,0-0.3,0.1-0.4c2.2-2.6,4.6-5.1,7.1-7.5c0.3-0.2,0.7-0.2,0.9,0c0.2,0.3,0.2,0.7,0,0.9c-2.5,2.3-4.9,4.8-7,7.4
			c-0.2,0.3-0.6,0.3-0.9,0.1C485.5,1031.4,485.4,1031.2,485.4,1031.1z M500.4,1017.2c0-0.2,0.1-0.4,0.3-0.5c2.8-2,5.7-3.8,8.8-5.4
			c0.3-0.2,0.7-0.1,0.9,0.3c0.2,0.3,0.1,0.7-0.3,0.9c-3,1.6-5.9,3.4-8.6,5.4c-0.3,0.2-0.7,0.1-0.9-0.1
			C500.4,1017.5,500.4,1017.3,500.4,1017.2z M518.4,1007.5c0-0.3,0.1-0.5,0.4-0.6c3.2-1.3,6.5-2.4,9.8-3.3c0.3-0.1,0.7,0.1,0.8,0.4
			c0.1,0.3-0.1,0.7-0.4,0.8c-3.3,0.9-6.5,2-9.6,3.2c-0.3,0.1-0.7,0-0.8-0.4C518.4,1007.6,518.4,1007.5,518.4,1007.5z M538.1,1002.1
			c0-0.3,0.2-0.6,0.5-0.7c3.3-0.5,6.6-0.8,9.9-0.9h0.4c0.3,0,0.6,0.3,0.7,0.6c0,0.3-0.3,0.6-0.6,0.7h-0.4c-3.2,0.1-6.5,0.4-9.7,0.9
			C538.5,1002.8,538.1,1002.6,538.1,1002.1C538.1,1002.2,538.1,1002.2,538.1,1002.1z M558.5,1001.5L558.5,1001.5
			c0-0.4,0.3-0.7,0.7-0.7c3.4,0.3,6.9,0.8,10.2,1.6c0.3,0.1,0.6,0.4,0.5,0.8c-0.1,0.3-0.4,0.6-0.8,0.5c-3.3-0.7-6.6-1.2-10-1.5
			C558.8,1002.1,558.5,1001.8,558.5,1001.5z M578.4,1005.9c0-0.1,0-0.2,0-0.2c0.1-0.3,0.5-0.5,0.8-0.4c1.3,0.5,2.7,1,4,1.6
			c1.8,0.8,3.6,1.7,5.4,2.6c0.3,0.2,0.4,0.5,0.3,0.9c-0.2,0.3-0.5,0.4-0.9,0.3c-1.8-0.9-3.6-1.8-5.3-2.5c-1.3-0.6-2.6-1.1-3.9-1.6
			C578.6,1006.4,578.4,1006.2,578.4,1005.9z M596.6,1015.3c0-0.1,0-0.3,0.1-0.4c0.2-0.3,0.6-0.4,0.9-0.2c2.8,1.8,5.6,3.9,8.3,6.1
			c0.3,0.2,0.3,0.6,0.1,0.9c-0.2,0.3-0.6,0.3-0.9,0.1c-2.7-2.2-5.5-4.2-8.2-6C596.7,1015.7,596.6,1015.5,596.6,1015.3z
			 M612.5,1028.1c0-0.2,0.1-0.3,0.2-0.5c0.2-0.3,0.6-0.3,0.9,0c2.4,2.2,4.8,4.7,7.2,7.3c0.2,0.3,0.2,0.7,0,0.9
			c-0.3,0.2-0.7,0.2-0.9,0c-2.4-2.6-4.8-5-7.2-7.2C612.6,1028.4,612.5,1028.2,612.5,1028.1z M626.6,1043c0-0.2,0.1-0.4,0.2-0.5
			c0.3-0.2,0.7-0.2,0.9,0.1c2.1,2.4,4.2,5,6.5,7.9c0.2,0.3,0.2,0.7-0.1,0.9c-0.3,0.2-0.7,0.2-0.9-0.1c-2.3-2.9-4.4-5.5-6.5-7.9
			C626.6,1043.3,626.6,1043.1,626.6,1043z M639.4,1059c0-0.2,0.1-0.4,0.2-0.5c0.3-0.2,0.7-0.2,0.9,0.1c1.8,2.4,3.6,4.7,5.4,7.1
			l0.8,1.1c0.2,0.3,0.2,0.7-0.1,0.9c-0.3,0.2-0.7,0.2-0.9-0.1l-0.8-1.1c-1.8-2.3-3.6-4.7-5.4-7.1
			C639.4,1059.2,639.4,1059.1,639.4,1059z M651.9,1075.1c0-0.2,0.1-0.4,0.2-0.5c0.3-0.2,0.7-0.2,0.9,0.1c2.4,2.9,4.7,5.4,6.9,7.5
			c0.3,0.2,0.3,0.6,0,0.9c-0.2,0.3-0.6,0.3-0.9,0c-2.2-2.2-4.5-4.6-7-7.6C652,1075.4,651.9,1075.3,651.9,1075.1z M666.8,1089.1
			c0-0.1,0-0.3,0.1-0.4c0.2-0.3,0.6-0.4,0.9-0.2c2.9,1.9,5.9,3.5,8.9,4.6c0.3,0.1,0.5,0.5,0.4,0.8s-0.5,0.5-0.8,0.4
			c-3.1-1.2-6.2-2.8-9.2-4.8C666.9,1089.5,666.8,1089.3,666.8,1089.1z M685.8,1095.9L685.8,1095.9c0-0.4,0.3-0.7,0.7-0.7
			c0.8,0,1.7,0,2.5,0c0.6,0,1.3-0.1,1.9-0.1c1.8-0.2,3.6-0.6,5.5-1.1c0.3-0.1,0.7,0.1,0.8,0.4s-0.1,0.7-0.4,0.8
			c-2,0.6-3.8,1-5.7,1.2c-0.7,0.1-1.3,0.1-2,0.1c-0.9,0-1.7,0-2.6,0C686.1,1096.5,685.8,1096.3,685.8,1095.9z M705.4,1090.8
			c0-0.2,0.1-0.5,0.4-0.6c1.5-0.7,2.9-1.5,4.4-2.3c1.6-0.8,3.1-1.6,4.7-2.4c0.3-0.2,0.7,0,0.9,0.3s0,0.7-0.3,0.9
			c-1.6,0.8-3.1,1.6-4.7,2.4c-1.5,0.8-3,1.5-4.4,2.3c-0.3,0.2-0.7,0-0.9-0.3C705.4,1091,705.4,1090.9,705.4,1090.8z M724,1082.3
			c0-0.3,0.2-0.6,0.5-0.6c3.1-0.9,6.4-1.4,9.7-1.5h0.5c0.3,0,0.6,0.3,0.7,0.6l0,0c0,0.4-0.3,0.6-0.6,0.7h-0.5
			c-3.2,0.1-6.4,0.6-9.4,1.5c-0.3,0.1-0.7-0.1-0.8-0.4C724,1082.4,724,1082.4,724,1082.3z M744.3,1081.7c0-0.1,0-0.1,0-0.2
			c0.1-0.3,0.4-0.6,0.8-0.5c3.3,0.7,6.6,1.8,9.9,3.2c0.3,0.1,0.5,0.5,0.3,0.8c-0.1,0.3-0.5,0.5-0.8,0.3c-3.1-1.4-6.4-2.4-9.6-3.1
			C744.5,1082.3,744.3,1082,744.3,1081.7z M762.9,1089.8c0-0.1,0-0.3,0.1-0.4c0.2-0.3,0.6-0.4,0.9-0.2c2.9,2,5.5,4.2,7.9,6.6
			c0.2,0.2,0.2,0.7,0,0.9c-0.2,0.2-0.7,0.2-0.9,0c-2.4-2.4-5-4.6-7.8-6.5C763,1090.2,762.9,1090,762.9,1089.8z M775.7,1211.7
			c0-0.1,0-0.2,0.1-0.3c1.6-2.9,3.2-6,4.5-9.1c0.1-0.3,0.5-0.5,0.8-0.3c0.3,0.1,0.5,0.5,0.3,0.8c-1.4,3.1-2.9,6.2-4.6,9.2
			c-0.2,0.3-0.6,0.4-0.9,0.2C775.9,1212.1,775.7,1211.9,775.7,1211.7z M777.3,1104.3c0-0.2,0.1-0.4,0.3-0.5c0.3-0.2,0.7-0.1,0.9,0.2
			c1.9,2.8,3.7,5.8,5.2,8.9c0.2,0.3,0,0.7-0.3,0.8c-0.3,0.2-0.7,0-0.8-0.3c-1.5-3.1-3.2-6-5.1-8.8
			C777.3,1104.5,777.3,1104.4,777.3,1104.3z M784.1,1193c0-0.1,0-0.2,0-0.2c1.1-3.2,2.1-6.5,3-9.7c0.1-0.3,0.4-0.5,0.8-0.5
			c0.3,0.1,0.5,0.4,0.5,0.8c-0.9,3.3-1.9,6.6-3,9.8c-0.1,0.3-0.5,0.5-0.8,0.4C784.3,1193.5,784.1,1193.3,784.1,1193z M786.2,1122.6
			c0-0.3,0.2-0.5,0.4-0.6c0.3-0.1,0.7,0.1,0.8,0.4c1,3.2,1.9,6.5,2.6,10c0.1,0.3-0.2,0.7-0.5,0.7c-0.3,0.1-0.7-0.2-0.7-0.5
			c-0.7-3.4-1.6-6.7-2.6-9.8C786.2,1122.7,786.2,1122.7,786.2,1122.6z M789.2,1173.2L789.2,1173.2c0.6-3.4,1-6.8,1.3-10.2
			c0-0.4,0.3-0.6,0.7-0.6s0.6,0.3,0.6,0.7c-0.3,3.4-0.7,6.8-1.3,10.2c-0.1,0.3-0.4,0.6-0.7,0.5
			C789.4,1173.8,789.2,1173.5,789.2,1173.2z M790.3,1142.6c0-0.3,0.2-0.6,0.6-0.7c0.3,0,0.7,0.2,0.7,0.6c0.2,2.1,0.4,4.2,0.4,6.4
			v0.3c0,1.2,0.1,2.4,0.1,3.6c0,0.4-0.3,0.6-0.6,0.6c-0.4,0-0.6-0.2-0.6-0.6c0-1.2,0-2.4-0.1-3.5v-0.3
			C790.7,1146.9,790.5,1144.7,790.3,1142.6C790.3,1142.7,790.3,1142.6,790.3,1142.6z"/>
	</g>
	<g>
		<path class="st2" d="M459.2,1123.2C459.2,1123.1,459.2,1123.1,459.2,1123.2c0.1-1.8,0.2-3.4,0.4-5.1c0-0.4,0.3-0.6,0.7-0.6
			c0.4,0,0.6,0.3,0.6,0.7c-0.1,1.7-0.3,3.4-0.4,5.1c0,0.3-0.3,0.6-0.7,0.6C459.5,1123.8,459.3,1123.5,459.2,1123.2z"/>
	</g>
</g>
<g>
	<g>
		<path class="st1" d="M1380.2-111.7c0.2-0.4,0.8-0.6,1.2-0.4c0.5,0.2,0.8,0.8,0.6,1.3c-1,2.5-1.9,4.9-2.9,7.4
			c-0.2,0.5-0.8,0.7-1.3,0.5s-0.7-0.8-0.5-1.3c1-2.4,2-4.9,2.9-7.3C1380.2-111.7,1380.2-111.7,1380.2-111.7z"/>
	</g>
	<g>
		<path class="st2" d="M921.2-267.3c2.5-4.6,5.2-9.2,7.8-13.8c0.3-0.5,0.9-0.6,1.4-0.4c0.5,0.3,0.7,0.9,0.4,1.4
			c-2.7,4.5-5.3,9.1-7.8,13.7c-0.3,0.5-0.9,0.7-1.3,0.4S920.9-266.8,921.2-267.3z M913.8-253.3c0.3-0.5,0.8-0.6,1.3-0.4
			c0.5,0.2,0.7,0.8,0.4,1.3c-2.4,4.6-4.7,9.4-7,14.1c-0.2,0.5-0.8,0.7-1.3,0.5s-0.7-0.8-0.5-1.3
			C909.1-243.9,911.4-248.7,913.8-253.3L913.8-253.3z M900.2-224.8c0.2-0.4,0.8-0.6,1.3-0.4c0.5,0.2,0.7,0.8,0.5,1.3
			c-2.1,4.8-4.2,9.6-6.1,14.5c-0.2,0.5-0.8,0.7-1.3,0.5s-0.7-0.8-0.5-1.3C896-215.1,898.1-220,900.2-224.8L900.2-224.8z
			 M888.4-195.6c0.2-0.4,0.8-0.6,1.2-0.4c0.5,0.2,0.8,0.8,0.6,1.3l-0.1,0.4c-2.1,5.6-3.7,10.1-5,14.5c-0.2,0.5-0.7,0.8-1.2,0.6
			s-0.8-0.7-0.6-1.2c1.4-4.4,3-9,5-14.6l0.2-0.4C888.3-195.5,888.3-195.5,888.4-195.6z M879.2-165.4c0.2-0.4,0.6-0.6,1.1-0.5
			s0.9,0.6,0.8,1.2c-1.1,5.5-1.8,10.5-2,15.5c0,0.5-0.5,1-1,0.9c-0.5,0-1-0.5-0.9-1c0.3-5.1,0.9-10.2,2.1-15.8
			C879.1-165.2,879.1-165.3,879.2-165.4z M877.9-134c0.1-0.3,0.4-0.4,0.7-0.5c0.5-0.1,1,0.3,1.1,0.8c0.8,5.2,2.3,10.2,4.3,14.9
			c0.2,0.5,0,1.1-0.5,1.3c-0.5,0.2-1.1,0-1.3-0.5c-2.1-4.8-3.5-10-4.4-15.4C877.7-133.6,877.8-133.8,877.9-134z M890.4-105.4
			c0.1-0.1,0.1-0.2,0.2-0.3c0.4-0.3,1-0.3,1.4,0.1c3.3,4,7.2,7.3,11.5,9.8l0.3,0.1c0.5,0.3,0.7,0.9,0.4,1.3
			c-0.3,0.5-0.9,0.6-1.3,0.4l-0.3-0.1c-4.5-2.6-8.5-6-12-10.2C890.2-104.6,890.2-105.1,890.4-105.4z M917.2-90
			c0.2-0.4,0.6-0.6,1-0.5c4.9,0.8,10.1,1,15.5,0.5c0.5-0.1,1,0.3,1.1,0.9c0.1,0.5-0.3,1-0.9,1.1c-5.6,0.5-11,0.3-16-0.5
			c-0.5-0.1-0.9-0.6-0.8-1.1C917.1-89.8,917.1-89.9,917.2-90z M948.3-92.6c0.1-0.2,0.3-0.4,0.6-0.5c1.5-0.5,3.1-1,4.6-1.5
			c3.2-1.2,6.5-2.6,10-4.2c0.5-0.2,1.1,0,1.3,0.5s0,1.1-0.5,1.3c-3.5,1.7-6.8,3.1-10.1,4.3c-1.5,0.6-3.1,1.1-4.7,1.6
			c-0.5,0.2-1.1-0.1-1.2-0.7C948.2-92.1,948.2-92.4,948.3-92.6z M976.9-105.8c0.1-0.2,0.2-0.3,0.4-0.4c2.9-1.7,5.9-3.4,8.8-5.1
			c1.6-1,3.2-1.9,4.8-2.8c0.5-0.3,1.1-0.1,1.4,0.4c0.3,0.5,0.1,1.1-0.4,1.4c-1.6,0.9-3.2,1.9-4.8,2.8c-2.9,1.7-5.9,3.5-8.8,5.1
			c-0.5,0.3-1.1,0.1-1.3-0.4C976.8-105.2,976.8-105.5,976.9-105.8z M1004.4-121.4c0.1-0.2,0.2-0.3,0.4-0.4
			c5.7-2.7,10.7-4.3,15.3-4.9c0.5-0.1,1,0.3,1.1,0.9c0.1,0.5-0.3,1-0.9,1.1c-4.3,0.5-9.1,2.1-14.7,4.7c-0.5,0.2-1.1,0-1.3-0.5
			C1004.2-120.8,1004.3-121.1,1004.4-121.4z M1034.6-123.3L1034.6-123.3c0.3-0.5,0.9-0.7,1.4-0.4c4.3,2.5,8,6.4,11.2,11.6
			c0.3,0.5,0.1,1.1-0.3,1.4c-0.5,0.3-1.1,0.1-1.4-0.3c-3-4.9-6.5-8.6-10.5-10.9C1034.5-122.2,1034.3-122.8,1034.6-123.3z
			 M1051.6-97.5c0.1-0.2,0.3-0.4,0.6-0.5c0.5-0.2,1.1,0.1,1.2,0.7l0.3,0.9c1.3,4.5,2.4,9.3,3.5,14.5c0.1,0.5-0.2,1.1-0.8,1.2
			c-0.5,0.1-1.1-0.2-1.2-0.8c-1-5.2-2.2-9.9-3.4-14.4l-0.3-0.9C1051.4-97,1051.5-97.3,1051.6-97.5z M1057.9-66.6
			c0.1-0.3,0.4-0.5,0.7-0.5c0.5-0.1,1,0.3,1.1,0.8c0.6,4.3,1.2,8.7,1.7,13l0.3,2.6c0.1,0.5-0.3,1-0.9,1.1c-0.5,0.1-1-0.3-1.1-0.9
			l-0.3-2.7c-0.6-4.3-1.1-8.7-1.7-13C1057.7-66.2,1057.8-66.4,1057.9-66.6z M1062.1-35.3c0.1-0.3,0.4-0.5,0.7-0.5
			c0.5-0.1,1,0.3,1.1,0.8c0.3,1.6,0.5,3.2,0.8,4.9c0.6,3.7,1.3,7.2,2.1,10.6c0.1,0.5-0.2,1.1-0.7,1.2s-1.1-0.2-1.2-0.7
			c-0.8-3.4-1.5-7-2.1-10.7c-0.3-1.6-0.6-3.3-0.8-4.9C1062-34.9,1062-35.1,1062.1-35.3z M1069.3-4.6c0.1-0.2,0.3-0.4,0.5-0.5
			c0.5-0.2,1.1,0.1,1.3,0.6c1.8,5.2,3.8,10,6,14.4c0.2,0.5,0.1,1.1-0.4,1.3s-1.1,0.1-1.3-0.4c-2.3-4.5-4.4-9.4-6.2-14.7
			C1069.1-4.1,1069.2-4.3,1069.3-4.6z M1083.8,23.3c0.1-0.1,0.1-0.2,0.3-0.3c0.4-0.3,1.1-0.3,1.4,0.2c1.8,2.4,3.8,4.6,5.9,6.6
			c1.5,1.5,3.2,3.1,5,4.5c0.4,0.3,0.5,1,0.1,1.4c-0.3,0.4-1,0.5-1.4,0.1c-1.8-1.5-3.5-3-5.1-4.6c-2.1-2.1-4.1-4.4-6-6.8
			C1083.6,24.1,1083.6,23.6,1083.8,23.3z M1107.8,43.4L1107.8,43.4c0.3-0.5,0.9-0.7,1.3-0.4l0.8,0.5c2.7,1.5,5.7,3,8.8,4.3
			c1.5,0.7,3,1.3,4.5,1.9c0.5,0.2,0.8,0.8,0.6,1.3c-0.2,0.5-0.8,0.8-1.3,0.5c-1.5-0.6-3.1-1.3-4.6-1.9c-3.1-1.4-6.1-2.9-8.9-4.4
			l-0.8-0.5C1107.8,44.5,1107.6,43.9,1107.8,43.4z M1137,55.2c0.2-0.4,0.7-0.6,1.1-0.5c5,1.4,10.1,2.4,15.3,3.3
			c0.5,0.1,0.9,0.6,0.8,1.1s-0.6,0.9-1.1,0.8c-5.3-0.8-10.5-1.9-15.5-3.3c-0.5-0.1-0.8-0.7-0.7-1.2C1137,55.4,1137,55.3,1137,55.2z
			 M1168.2,60.1c0.2-0.3,0.5-0.5,0.9-0.5c5.2,0.3,10.4,0.3,15.7,0c0.5,0,1,0.4,1,0.9s-0.4,1-0.9,1c-5.3,0.3-10.7,0.3-15.9,0
			c-0.5,0-1-0.5-0.9-1C1168.1,60.4,1168.1,60.2,1168.2,60.1z M1199.7,58.6c0.1-0.3,0.4-0.5,0.7-0.5c5.1-0.7,10.3-1.7,15.4-2.9
			c0.5-0.1,1.1,0.2,1.2,0.7s-0.2,1.1-0.7,1.2c-5.2,1.2-10.4,2.2-15.6,3c-0.5,0.1-1-0.3-1.1-0.8C1199.5,59,1199.6,58.7,1199.7,58.6z
			 M1230.4,51.3c0.1-0.2,0.3-0.4,0.6-0.5c4.9-1.6,9.9-3.5,14.7-5.5c0.5-0.2,1.1,0,1.3,0.5c0.2,0.5,0,1.1-0.5,1.3
			c-4.9,2.1-9.9,3.9-14.9,5.6c-0.5,0.2-1.1-0.1-1.2-0.6C1230.2,51.8,1230.2,51.6,1230.4,51.3z M1259.4,39c0.1-0.2,0.2-0.3,0.4-0.4
			c4.6-2.4,9.2-5.1,13.6-7.9c0.5-0.3,1.1-0.2,1.4,0.3s0.2,1.1-0.3,1.4c-4.4,2.8-9.1,5.5-13.7,7.9c-0.5,0.3-1.1,0.1-1.3-0.4
			C1259.3,39.7,1259.3,39.3,1259.4,39z M1286.1,22.1c0.1-0.1,0.2-0.2,0.3-0.3c4.1-3.1,8.2-6.4,12.2-9.9c0.4-0.4,1-0.3,1.4,0.1
			c0.4,0.4,0.3,1-0.1,1.4c-4,3.5-8.1,6.8-12.3,10c-0.4,0.3-1.1,0.2-1.4-0.2C1285.9,22.9,1285.9,22.5,1286.1,22.1z M1309.9,1.4
			c0-0.1,0.1-0.2,0.2-0.2c3.6-3.6,7.3-7.5,10.8-11.5c0.4-0.4,1-0.4,1.4-0.1c0.4,0.4,0.5,1,0.1,1.4c-3.5,4-7.2,7.9-10.9,11.6
			c-0.4,0.4-1,0.4-1.4,0C1309.7,2.3,1309.6,1.8,1309.9,1.4z M1330.7-22.2l0.1-0.1c3.2-4.1,6.3-8.3,9.3-12.7c0.3-0.4,0.9-0.6,1.4-0.2
			s0.5,1,0.2,1.4c-3,4.4-6.2,8.7-9.4,12.7c-0.3,0.4-1,0.5-1.4,0.2C1330.6-21.3,1330.5-21.8,1330.7-22.2z M1371-89.9
			c0.2-0.4,0.8-0.6,1.3-0.4s0.7,0.8,0.5,1.3c-2.2,4.8-4.5,9.7-6.8,14.3c-0.2,0.5-0.8,0.7-1.3,0.4c-0.5-0.2-0.7-0.8-0.4-1.3
			C1366.5-80.2,1368.8-85,1371-89.9C1371-89.8,1371-89.9,1371-89.9z M1348.8-48.1L1348.8-48.1c2.8-4.4,5.4-9,8-13.6
			c0.3-0.5,0.9-0.6,1.3-0.4c0.5,0.3,0.6,0.9,0.4,1.3l0,0c-2.6,4.7-5.3,9.2-8.1,13.6c-0.3,0.5-0.9,0.6-1.4,0.3
			C1348.7-47.1,1348.6-47.6,1348.8-48.1z"/>
	</g>
	<g>
		<path class="st2" d="M937.3-294.7L937.3-294.7c1.4-2.3,2.9-4.5,4.3-6.7c0.3-0.5,0.9-0.6,1.4-0.3c0.5,0.3,0.6,0.9,0.3,1.4
			c-1.4,2.2-2.8,4.4-4.2,6.7c-0.3,0.5-0.9,0.6-1.4,0.3C937.2-293.6,937.1-294.2,937.3-294.7z"/>
	</g>
</g>
<path class="st0" d="M654.5,765"/>
<path class="st26" d="M-106.4-95.9"/>
<path class="st3" d="M-174-200.2c300.3-6.2,600.6-12.4,900.9-18.6c6.6-2,62.6-17.8,112.8,18.4c43.9,31.7,50.9,79.8,52,88.1
	C882.4-91.9,863-57,825.3-27.5c-64.3,50.3-136.1,49-156.8,47.8C625.2,15.6,513.8,9,394.7,70.9c-101,52.5-156.8,127.8-180.7,164.8
	c-19.2,65.2-75.9,110.1-138.2,111.6C2,349-42.6,288.9-46.5,283.5c-16.5-26.5-42-61.4-79.7-95.7c-39.1-35.5-77.6-57.9-106.3-71.8
	C-213,10.7-193.5-94.7-174-200.2z"/>
<g>
	<g>
		<path class="st1" d="M-175.3,216.5c-0.4,0-0.9-0.5-0.8-0.9c0-0.5,0.4-1.1,1-1.1c2.7-0.1,5.3-0.2,7.9-0.3c0.5,0,1,0.5,1,1
			s-0.5,1-1,1c-2.6,0-5.3,0.1-7.9,0.2C-175.3,216.5-175.3,216.5-175.3,216.5z"/>
	</g>
	<g>
		<path class="st2" d="M-135.2,699.5c-5.2-0.5-10.5-1.1-15.8-1.7c-0.6-0.1-0.9-0.6-0.9-1.1c0.1-0.6,0.5-1,1.1-0.9
			c5.2,0.7,10.5,1.2,15.7,1.7c0.6,0.1,1,0.5,0.9,1S-134.6,699.6-135.2,699.5z M-119.4,700.7c-0.6-0.1-0.9-0.5-0.9-1s0.5-1,1-0.9
			c5.2,0.4,10.5,0.6,15.7,0.8c0.5,0,1,0.5,1,1s-0.5,1-1,1C-108.9,701.3-114.2,701.1-119.4,700.7L-119.4,700.7z M-87.9,701.8
			c-0.4,0-0.9-0.5-0.9-1s0.5-1,1-1c5.2,0,10.5,0,15.7-0.2c0.5,0,1,0.5,1,1s-0.5,1-1,1C-77.3,701.8-82.6,701.8-87.9,701.8
			L-87.9,701.8z M-56.4,701c-0.4,0-0.9-0.5-0.8-0.9c0-0.5,0.4-1.1,1-1.1l0.4-0.1c6-0.3,10.7-0.6,15.3-1.2c0.5,0,1,0.3,1,0.9
			c0,0.5-0.3,1-0.9,1c-4.6,0.5-9.5,0.8-15.4,1.2h-0.4C-56.2,701.1-56.2,701.1-56.4,701z M-25,697.4c-0.4,0-0.8-0.3-0.9-0.8
			s0.2-1.1,0.8-1.2c5.5-1.2,10.3-2.5,15-4.3c0.5-0.2,1.1,0.1,1.2,0.6c0.2,0.5-0.1,1.1-0.6,1.2c-4.8,1.8-9.7,3.2-15.3,4.4
			C-24.8,697.4-24.9,697.5-25,697.4z M4.3,686.1c-0.3,0-0.5-0.2-0.7-0.4c-0.3-0.4-0.1-1,0.3-1.3c4.5-2.8,8.4-6.2,12-9.9
			c0.4-0.4,1-0.4,1.4-0.1c0.4,0.4,0.4,1,0.1,1.4C13.8,679.6,9.6,683,5,686C4.8,686.1,4.5,686.1,4.3,686.1z M25.6,663.3
			c-0.1-0.1-0.2,0-0.4-0.1c-0.4-0.2-0.7-0.8-0.5-1.3c2.4-4.6,3.8-9.5,4.4-14.5v-0.3c0.1-0.6,0.5-1,1-0.9c0.6,0.1,0.9,0.6,0.9,1v0.3
			c-0.6,5.2-2.1,10.2-4.6,15.1C26.4,663.1,25.9,663.3,25.6,663.3z M29,632.5c-0.4,0-0.8-0.3-0.9-0.7c-1.2-4.8-3.1-9.7-5.7-14.4
			c-0.3-0.4-0.1-1,0.4-1.4c0.4-0.3,1-0.1,1.4,0.4c2.7,4.9,4.7,10,5.9,14.9c0.1,0.5-0.2,1.1-0.7,1.2C29.2,632.6,29.1,632.6,29,632.5z
			 M14.2,605c-0.2,0-0.5-0.1-0.7-0.4c-1.1-1.2-2.2-2.4-3.2-3.6c-2.4-2.5-5-4.9-7.8-7.5c-0.4-0.4-0.4-1-0.1-1.4
			c0.4-0.4,1-0.4,1.4-0.1c3,2.5,5.6,5,8,7.6c1.1,1.1,2.2,2.4,3.3,3.7c0.4,0.4,0.3,1-0.2,1.4C14.7,604.9,14.5,605.1,14.2,605z
			 M-9.3,584.1c-0.2,0-0.4-0.1-0.5-0.2c-2.7-2-5.5-4.1-8.2-6c-1.6-1.1-3-2.2-4.5-3.3c-0.5-0.3-0.5-1-0.2-1.4c0.3-0.5,1-0.5,1.4-0.2
			c1.5,1.1,3,2.2,4.5,3.3c2.7,2,5.6,4,8.2,6c0.5,0.3,0.5,1,0.2,1.4C-8.7,583.9-8.9,584-9.3,584.1z M-34.5,565.1
			c-0.2,0-0.4-0.1-0.5-0.2c-4.7-4.2-8.2-8.1-10.6-12.1c-0.3-0.4-0.1-1,0.4-1.4c0.4-0.3,1-0.1,1.4,0.4c2.2,3.7,5.6,7.5,10.2,11.6
			c0.4,0.4,0.4,1,0.1,1.4C-33.9,565-34.2,565-34.5,565.1z M-48.3,538.1L-48.3,538.1c-0.6-0.1-1-0.5-0.9-1.1
			c0.6-4.9,2.7-9.9,6.2-14.9c0.3-0.5,1-0.5,1.4-0.3c0.5,0.3,0.5,1,0.3,1.4c-3.3,4.7-5.3,9.4-5.8,14
			C-47.2,537.8-47.7,538.2-48.3,538.1z M-31.4,512.2c-0.2,0-0.5-0.1-0.7-0.4c-0.4-0.4-0.3-1,0.2-1.4l0.7-0.6c3.6-3,7.6-5.9,11.9-9
			c0.4-0.3,1.1-0.3,1.4,0.3c0.3,0.4,0.3,1.1-0.3,1.4c-4.4,3-8.2,6-11.9,8.9l-0.7,0.6C-30.8,512.2-31.2,512.3-31.4,512.2z
			 M-5.6,494.2c-0.3,0-0.6-0.2-0.7-0.4c-0.3-0.4-0.1-1,0.3-1.3c3.7-2.3,7.5-4.6,11.2-6.7l2.3-1.3c0.4-0.3,1-0.1,1.4,0.4
			c0.3,0.4,0.1,1-0.4,1.4l-2.4,1.4c-3.7,2.3-7.5,4.5-11.2,6.7C-5.1,494.2-5.3,494.2-5.6,494.2z M21.5,477.8c-0.3,0-0.6-0.2-0.7-0.4
			c-0.3-0.4-0.1-1,0.3-1.3c1.3-0.9,2.7-1.7,4.2-2.7c3.2-2,6.1-4.1,8.9-6.1c0.4-0.3,1.1-0.3,1.4,0.2c0.3,0.4,0.3,1.1-0.2,1.4
			c-2.8,2.1-5.8,4.2-9,6.2c-1.3,0.9-2.8,1.9-4.2,2.7C21.9,477.8,21.7,477.9,21.5,477.8z M46.8,459c-0.2,0-0.5-0.1-0.7-0.3
			c-0.4-0.4-0.3-1,0-1.4c4.1-3.7,7.7-7.5,10.8-11.2c0.4-0.4,1-0.5,1.4-0.2s0.5,1,0.2,1.4c-3.2,3.9-6.9,7.8-11,11.5
			C47.3,459,47.1,459,46.8,459z M66.6,434.6c-0.1-0.1-0.2,0-0.4-0.2c-0.4-0.2-0.7-0.9-0.4-1.4c1.5-2.6,2.7-5.3,3.7-8
			c0.8-2,1.6-4.2,2.1-6.4c0.1-0.5,0.7-0.9,1.2-0.6c0.5,0.1,0.9,0.7,0.6,1.2c-0.7,2.2-1.4,4.4-2.2,6.5c-1.1,2.8-2.4,5.5-3.8,8.2
			C67.4,434.5,67,434.7,66.6,434.6z M75.5,404.6L75.5,404.6c-0.6-0.1-1-0.5-0.9-1l0.1-0.9c0.3-3.1,0.5-6.4,0.4-9.8
			c0-1.7,0-3.3,0-4.9c0-0.5,0.4-1.1,1-1.1c0.5,0,1.1,0.4,1,1c0,1.6,0,3.4,0.1,5c0,3.4-0.2,6.8-0.5,9.9l-0.1,0.9
			C76.5,404.1,76,404.6,75.5,404.6z M74.7,373.1c-0.4,0-0.8-0.4-0.9-0.8c-0.7-5.1-1.8-10.2-3.1-15.3c-0.1-0.5,0.2-1.1,0.7-1.2
			s1.1,0.2,1.2,0.7c1.4,5.2,2.4,10.4,3.1,15.5c0.1,0.5-0.3,1-0.8,1.1C74.9,373,74.8,373.1,74.7,373.1z M66.7,342.5
			c-0.4-0.1-0.7-0.3-0.8-0.6c-1.8-4.9-3.9-9.7-6.3-14.4c-0.2-0.5,0-1.1,0.4-1.3c0.5-0.2,1.1,0,1.3,0.4c2.4,4.7,4.5,9.7,6.3,14.6
			c0.2,0.5-0.1,1.1-0.6,1.2C67.1,342.5,66.9,342.6,66.7,342.5z M52.8,314.2c-0.3,0-0.6-0.2-0.7-0.4c-2.7-4.4-5.7-8.8-8.8-13
			c-0.3-0.4-0.3-1.1,0.2-1.4s1.1-0.3,1.4,0.2c3.2,4.3,6.2,8.7,9,13.1c0.3,0.4,0.1,1-0.3,1.3C53.3,314.3,52.9,314.3,52.8,314.2z
			 M33.9,289c-0.2,0-0.5-0.1-0.7-0.4c-3.4-3.9-7.2-7.7-10.9-11.3c-0.4-0.4-0.4-1-0.1-1.4c0.4-0.4,1-0.4,1.4-0.1
			c3.9,3.7,7.5,7.5,11.1,11.4c0.4,0.4,0.3,1-0.1,1.3C34.4,289,34.2,289,33.9,289z M11.1,267.3c-0.2,0-0.4-0.1-0.5-0.2
			c-4-3.3-8.3-6.4-12.7-9.3c-0.5-0.3-0.6-0.9-0.3-1.4s0.9-0.6,1.4-0.3c4.3,2.9,8.7,6.2,12.7,9.4c0.5,0.3,0.5,1,0.2,1.4
			C11.7,267.1,11.4,267.2,11.1,267.3z M-15.1,249.5c-0.1-0.1-0.3-0.1-0.4-0.2c-4.5-2.5-9.1-5-13.9-7.2c-0.5-0.2-0.7-0.8-0.5-1.3
			s0.8-0.7,1.3-0.5c4.8,2.3,9.5,4.7,14.1,7.3c0.4,0.2,0.6,0.9,0.4,1.4C-14.3,249.4-14.6,249.5-15.1,249.5z M-43.5,235.9
			c-0.1,0-0.2,0-0.3-0.1c-4.7-1.9-9.8-3.7-14.8-5.3c-0.5-0.2-0.8-0.8-0.6-1.2c0.2-0.5,0.7-0.9,1.2-0.6c5.1,1.6,10.1,3.5,15,5.4
			c0.5,0.2,0.8,0.8,0.6,1.3C-42.6,235.8-43.1,236-43.5,235.9z M-73.5,226.2l-0.1-0.1c-5-1.3-10.1-2.5-15.4-3.5
			c-0.5-0.1-0.9-0.6-0.7-1.2c0.2-0.6,0.7-0.9,1.2-0.7c5.2,1,10.4,2.2,15.4,3.6c0.5,0.1,0.9,0.7,0.7,1.2
			C-72.6,226-73,226.3-73.5,226.2z M-151.6,216.2c-0.4,0-0.9-0.5-0.9-1s0.5-1,1-1c5.3,0.1,10.7,0.3,15.8,0.5c0.5,0,1,0.5,0.9,1
			c0,0.5-0.5,1-1,0.9C-140.9,216.5-146.2,216.3-151.6,216.2C-151.5,216.2-151.6,216.2-151.6,216.2z M-104.4,220L-104.4,220
			c-5.2-0.8-10.4-1.4-15.7-1.9c-0.6-0.1-0.9-0.6-0.9-1c0.1-0.6,0.6-0.9,1-0.9l0,0c5.3,0.5,10.5,1.2,15.7,2c0.6,0.1,0.9,0.6,0.8,1.2
			C-103.5,219.7-103.9,219.9-104.4,220z"/>
	</g>
	<g>
		<path class="st2" d="M-166.8,695.6L-166.8,695.6c-2.7-0.4-5.3-0.9-7.9-1.3c-0.6-0.1-0.9-0.6-0.8-1.2c0.1-0.6,0.6-0.9,1.2-0.8
			c2.6,0.4,5.2,0.8,7.8,1.2c0.6,0.1,0.9,0.6,0.8,1.2C-165.7,695.3-166.2,695.6-166.8,695.6z"/>
	</g>
</g>
</svg>
